<?xml version="1.0" encoding="utf-8"?>
<!-- Generator: Adobe Illustrator 22.0.0, SVG Export Plug-In . SVG Version: 6.00 Build 0)  -->
<svg version="1.1" id="Layer_4" xmlns="http://www.w3.org/2000/svg" xmlns:xlink="http://www.w3.org/1999/xlink" x="0px" y="0px"
	 viewBox="0 0 1089.3 200" style="enable-background:new 0 0 1089.3 200;" xml:space="preserve">
<style type="text/css">
	.st0{fill:none;}
	.st1{fill:#FFC107;}
	.st2{fill:#0F9D58;}
	.st3{opacity:0.2;fill:#BF360C;enable-background:new    ;}
	.st4{opacity:0.2;fill:#263238;enable-background:new    ;}
	.st5{opacity:0.2;fill:#FFFFFF;enable-background:new    ;}
	.st6{fill:url(#XMLID_5_);}
	.st7{fill:url(#XMLID_21_);}
	.st8{fill:#4285F4;}
	.st9{fill:#DB4437;}
	.st10{opacity:0.2;fill:#1A237E;enable-background:new    ;}
	.st11{opacity:0.2;fill:#3E2723;enable-background:new    ;}
	.st12{fill:url(#XMLID_22_);}
	.st13{fill:#767676;}
</style>
<g id="XMLID_1_">
	<g id="XMLID_50_">
		<g id="XMLID_72_">
			<path id="XMLID_7_" class="st0" d="M99.6,94.7L57,21H0l47,81.3L0,183.7h57L99.6,110C102.3,105.3,102.3,99.4,99.6,94.7z"/>
			<path id="XMLID_80_" class="st1" d="M75.1,151l-13.5-23.3l-32.5,56H57l18.5-32L75.1,151z"/>
			<path id="XMLID_8_" class="st0" d="M99.6,94.7L57,21H0l47,81.3L0,183.7h57L99.6,110C102.3,105.3,102.3,99.4,99.6,94.7z"/>
			<path id="XMLID_39_" class="st2" d="M47,102.3l14.6,25.3l-32.5,56H0L47,102.3z"/>
			<path id="XMLID_9_" class="st0" d="M99.6,94.7L57,21H0l47,81.3L0,183.7h57L99.6,110C102.3,105.3,102.3,99.4,99.6,94.7z"/>
			<path id="XMLID_38_" class="st3" d="M57,182.4H29.9l-0.7,1.3H57l18.5-32l-0.4-0.7L57,182.4z"/>
			<path id="XMLID_10_" class="st0" d="M99.6,94.7L57,21H0l47,81.3L0,183.7h57L99.6,110C102.3,105.3,102.3,99.4,99.6,94.7z"/>
			<path id="XMLID_37_" class="st4" d="M0.7,182.4L0,183.7h29.2l0.7-1.3H0.7z"/>
			<path id="XMLID_11_" class="st0" d="M99.6,94.7L57,21H0l47,81.3L0,183.7h57L99.6,110C102.3,105.3,102.3,99.4,99.6,94.7z"/>
			<path id="XMLID_36_" class="st5" d="M0,183.7h0.7L47.4,103l-0.4-0.7L0,183.7z"/>
			<path id="XMLID_12_" class="st0" d="M99.6,94.7L57,21H0l47,81.3L0,183.7h57L99.6,110C102.3,105.3,102.3,99.4,99.6,94.7z"/>
			
				<radialGradient id="XMLID_5_" cx="388.6397" cy="205.7602" r="35.9996" gradientTransform="matrix(1.5625 0 0 1.5625 -531.9225 -170.4065)" gradientUnits="userSpaceOnUse">
				<stop  offset="0" style="stop-color:#BF360C;stop-opacity:0.2"/>
				<stop  offset="1" style="stop-color:#BF360C;stop-opacity:2.000000e-02"/>
			</radialGradient>
			<path id="XMLID_79_" class="st6" d="M75.6,151.6l-13.9-24l-3.4,5.9L75.6,151.6z"/>
			<path id="XMLID_13_" class="st0" d="M99.6,94.7L57,21H0l47,81.3L0,183.7h57L99.6,110C102.3,105.3,102.3,99.4,99.6,94.7z"/>
			
				<radialGradient id="XMLID_21_" cx="388.538" cy="205.9879" r="36.2916" gradientTransform="matrix(1.5625 0 0 1.5625 -531.9225 -170.4065)" gradientUnits="userSpaceOnUse">
				<stop  offset="0" style="stop-color:#263238;stop-opacity:0.2"/>
				<stop  offset="1" style="stop-color:#263238;stop-opacity:2.000000e-02"/>
			</radialGradient>
			<path id="XMLID_78_" class="st7" d="M58.2,133.5l3.4-5.9L47,102.3l-6.9,12L58.2,133.5z"/>
			<path id="XMLID_14_" class="st0" d="M99.6,94.7L57,21H0l47,81.3L0,183.7h57L99.6,110C102.3,105.3,102.3,99.4,99.6,94.7z"/>
			<g id="XMLID_75_">
				<g id="XMLID_76_">
					<path id="XMLID_77_" class="st8" d="M29.2,21H0l75.6,130.6l14.6-25.3L29.2,21z"/>
				</g>
			</g>
			<path id="XMLID_15_" class="st0" d="M99.6,94.7L57,21H0l47,81.3L0,183.7h57L99.6,110C102.3,105.3,102.3,99.4,99.6,94.7z"/>
			<path id="XMLID_35_" class="st9" d="M99.6,110c2.8-4.7,2.8-10.6,0-15.3L57,21H29.2l60.9,105.3L99.6,110z"/>
			<path id="XMLID_16_" class="st0" d="M99.6,94.7L57,21H0l47,81.3L0,183.7h57L99.6,110C102.3,105.3,102.3,99.4,99.6,94.7z"/>
			<path id="XMLID_34_" class="st10" d="M90.1,126.3l-0.3-0.7l-14.2,24.6L0.7,21H0l75.6,130.6L90.1,126.3z"/>
			<path id="XMLID_17_" class="st0" d="M99.6,94.7L57,21H0l47,81.3L0,183.7h57L99.6,110C102.3,105.3,102.3,99.4,99.6,94.7z"/>
			<path id="XMLID_2_" class="st5" d="M57,22.3L99.6,96c1.2,2.2,1.9,4.6,2,7c0.1-2.8-0.6-5.7-2-8.3L57,21H0l0.7,1.3H57z"/>
			<path id="XMLID_18_" class="st0" d="M99.6,94.7L57,21H0l47,81.3L0,183.7h57L99.6,110C102.3,105.3,102.3,99.4,99.6,94.7z"/>
			<path id="XMLID_74_" class="st11" d="M90.1,126.3l9.4-16.3c1.5-2.5,2.1-5.4,2-8.3c-0.1,2.4-0.7,4.8-2,7l-9.8,17L90.1,126.3z"/>
			<path id="XMLID_19_" class="st0" d="M99.6,94.7L57,21H0l47,81.3L0,183.7h57L99.6,110C102.3,105.3,102.3,99.4,99.6,94.7z"/>
			
				<radialGradient id="XMLID_22_" cx="339.6176" cy="123.3133" r="109.266" gradientTransform="matrix(1.5625 0 0 1.5625 -531.9225 -170.4065)" gradientUnits="userSpaceOnUse">
				<stop  offset="0" style="stop-color:#FFFFFF;stop-opacity:0.1"/>
				<stop  offset="1" style="stop-color:#FFFFFF;stop-opacity:0"/>
			</radialGradient>
			<path id="XMLID_73_" class="st12" d="M99.6,94.7L57,21H0l47,81.3L0,183.7h57L99.6,110C102.3,105.3,102.3,99.4,99.6,94.7z"/>
		</g>
	</g>
</g>
<g id="XMLID_6_">
	<path id="XMLID_3_" class="st13" d="M292.7,105.9c0,17.9-5.3,32.2-15.9,42.9c-12,12.7-27.7,19-47.1,19c-18.5,0-34.2-6.4-47.3-19.3
		c-12.9-12.9-19.4-28.8-19.4-47.7s6.5-34.9,19.4-47.7c12.9-12.9,28.7-19.3,47.3-19.3c9.2,0,18,1.8,26.4,5.4
		c8.4,3.6,15,8.4,20.1,14.3l-11.3,11.3c-8.5-10.2-20.3-15.3-35.2-15.3c-13.5,0-25.2,4.7-35.1,14.2c-9.8,9.5-14.8,21.8-14.8,37
		s5,27.5,14.8,37c9.8,9.5,21.6,14.2,35.1,14.2c14.3,0,26.3-4.8,35.9-14.3c6.2-6.2,9.8-14.9,10.7-25.9h-46.6V96.2h62.1
		C292.4,99.6,292.7,102.8,292.7,105.9L292.7,105.9z"/>
	<path id="XMLID_20_" class="st13" d="M309.3,164.9V36.5h39.2c19.7,0,35.5,5.9,47.3,17.8c11.8,11.9,17.7,27.3,17.7,46.4
		s-5.9,34.4-17.7,46.4c-11.8,11.9-27.6,17.8-47.3,17.8H309.3z M325.8,149.1h22.8c14.8,0,26.5-4.2,35.2-12.7c8.6-8.5,13-20.3,13-35.6
		c0-15.2-4.3-27-13-35.5c-8.7-8.5-20.4-12.9-35.2-12.9h-22.8V149.1z"/>
	<path id="XMLID_23_" class="st13" d="M553.9,105.9c0,17.9-5.3,32.2-15.9,42.9c-12,12.7-27.7,19-47.1,19c-18.5,0-34.2-6.4-47.3-19.3
		c-12.9-12.9-19.4-28.8-19.4-47.7s6.5-34.9,19.4-47.7c12.9-12.9,28.7-19.3,47.3-19.3c9.2,0,18,1.8,26.4,5.4
		c8.4,3.6,15,8.4,20.1,14.3L526,64.8c-8.5-10.2-20.3-15.3-35.2-15.3c-13.5,0-25.2,4.7-35.1,14.2c-9.8,9.5-14.8,21.8-14.8,37
		s5,27.5,14.8,37c9.8,9.5,21.6,14.2,35.1,14.2c14.3,0,26.3-4.8,35.9-14.3c6.2-6.2,9.8-14.9,10.7-25.9h-46.6V96.2h62.1
		C553.5,99.6,553.9,102.8,553.9,105.9L553.9,105.9z"/>
	<g>
		<path class="st13" d="M610.9,36.5h16.7V152h55.5v14.1h-72.2L610.9,36.5L610.9,36.5z"/>
		<path class="st13" d="M752.4,166.1l-1.3-11.7h-0.5c-5.3,7.4-15.1,13.8-28.4,13.8c-18.9,0-28.4-13.3-28.4-26.8
			c0-22.6,19.9-34.8,56-34.5V105c0-7.7-2.1-21.5-21.2-21.5c-8.8,0-17.8,2.7-24.2,6.9l-3.7-11.2c7.7-5,18.9-8.2,30.5-8.2
			c28.4,0,35.3,19.4,35.3,38v34.8c0,8,0.3,15.9,1.6,22.3C768,166.1,752.4,166.1,752.4,166.1z M750,118.6c-18.6-0.3-39.3,2.9-39.3,21
			c0,10.9,7.4,16.2,15.9,16.2c12.2,0,19.9-7.7,22.6-15.7c0.5-1.9,1.1-3.7,1.1-5.3v-16.2H750z"/>
		<path class="st13" d="M834.9,38.1c8-1.3,18.6-2.4,32.1-2.4c16.5,0,28.7,3.7,36.4,10.6c7.2,6.1,11.4,15.7,11.4,27.1
			c0,11.7-3.5,21-10.1,27.6c-8.8,9.3-23.4,14.3-39.6,14.3c-5,0-9.6-0.3-13.5-1.1v51.8h-16.7L834.9,38.1L834.9,38.1z M851.7,100.5
			c3.7,1.1,8.2,1.3,13.8,1.3c20.2,0,32.4-9.8,32.4-27.6c0-17-12.2-25.5-30.5-25.5c-7.4,0-12.7,0.5-15.7,1.3L851.7,100.5L851.7,100.5
			z"/>
		<path class="st13" d="M983.1,166.1l-1.3-11.7h-0.5c-5.3,7.4-15.1,13.8-28.4,13.8c-18.9,0-28.4-13.3-28.4-26.8
			c0-22.6,19.9-34.8,56-34.5V105c0-7.7-2.1-21.5-21.2-21.5c-8.8,0-17.8,2.7-24.2,6.9l-3.7-11.2c7.7-5,18.9-8.2,30.5-8.2
			c28.4,0,35.3,19.4,35.3,38v34.8c0,8,0.3,15.9,1.6,22.3C998.8,166.1,983.1,166.1,983.1,166.1z M980.7,118.6
			c-18.6-0.3-39.3,2.9-39.3,21c0,10.9,7.4,16.2,15.9,16.2c12.2,0,19.9-7.7,22.6-15.7c0.5-1.9,1.1-3.7,1.1-5.3v-16.2H980.7z"/>
		<path class="st13" d="M1013.6,156.3l42.2-54.7c4-5,8-9.3,12.2-14.3V87h-50.4V73.4h70.9l-0.3,10.6l-41.4,53.9
			c-3.7,5.3-7.7,9.8-11.9,14.6v0.3h54.4v13.5h-75.7V156.3z"/>
	</g>
</g>
</svg>
