<svg id="Layer_4" data-name="Layer 4" xmlns="http://www.w3.org/2000/svg" xmlns:xlink="http://www.w3.org/1999/xlink" viewBox="0 0 1339.37 200"><defs><style>.cls-1{fill:none;}.cls-2{fill:#ffc107;}.cls-3{fill:#0f9d58;}.cls-4{fill:#bf360c;}.cls-11,.cls-12,.cls-4,.cls-5,.cls-6{opacity:0.2;isolation:isolate;}.cls-5{fill:#263238;}.cls-6{fill:#fff;}.cls-7{fill:url(#radial-gradient);}.cls-8{fill:url(#radial-gradient-2);}.cls-9{fill:#4285f4;}.cls-10{fill:#db4437;}.cls-11{fill:#1a237e;}.cls-12{fill:#3e2723;}.cls-13{fill:url(#radial-gradient-3);}.cls-14{fill:#767676;}</style><radialGradient id="radial-gradient" cx="399.71" cy="211.43" r="44.26" gradientTransform="translate(-531.92 -170.41) scale(1.56)" gradientUnits="userSpaceOnUse"><stop offset="0" stop-color="#bf360c" stop-opacity="0.2"/><stop offset="1" stop-color="#bf360c" stop-opacity="0.02"/></radialGradient><radialGradient id="radial-gradient-2" cx="399.58" cy="211.71" r="44.62" gradientTransform="translate(-531.92 -170.41) scale(1.56)" gradientUnits="userSpaceOnUse"><stop offset="0" stop-color="#263238" stop-opacity="0.2"/><stop offset="1" stop-color="#263238" stop-opacity="0.02"/></radialGradient><radialGradient id="radial-gradient-3" cx="339.43" cy="110.06" r="134.35" gradientTransform="translate(-531.92 -170.41) scale(1.56)" gradientUnits="userSpaceOnUse"><stop offset="0" stop-color="#fff" stop-opacity="0.1"/><stop offset="1" stop-color="#fff" stop-opacity="0"/></radialGradient></defs><title>gdg-lviv</title><g id="_Group_" data-name="&lt;Group&gt;"><g id="_Group_2" data-name="&lt;Group&gt;"><g id="_Group_3" data-name="&lt;Group&gt;"><path id="_Path_" data-name="&lt;Path&gt;" class="cls-1" d="M122.5,90.6,70.1,0H0L57.8,100,0,200H70.1l52.4-90.6A19.09,19.09,0,0,0,122.5,90.6Z"/><path id="_Path_2" data-name="&lt;Path&gt;" class="cls-2" d="M92.4,159.8,75.8,131.1,35.9,200H70.1l22.8-39.4Z"/><path id="_Path_3" data-name="&lt;Path&gt;" class="cls-1" d="M122.5,90.6,70.1,0H0L57.8,100,0,200H70.1l52.4-90.6A19.09,19.09,0,0,0,122.5,90.6Z"/><path id="_Path_4" data-name="&lt;Path&gt;" class="cls-3" d="M57.8,100l18,31.1L35.9,200H0Z"/><path id="_Path_5" data-name="&lt;Path&gt;" class="cls-1" d="M122.5,90.6,70.1,0H0L57.8,100,0,200H70.1l52.4-90.6A19.09,19.09,0,0,0,122.5,90.6Z"/><path id="_Path_6" data-name="&lt;Path&gt;" class="cls-4" d="M70.1,198.4H36.8l-.9,1.6H70.1l22.8-39.4-.5-.8Z"/><path id="_Path_7" data-name="&lt;Path&gt;" class="cls-1" d="M122.5,90.6,70.1,0H0L57.8,100,0,200H70.1l52.4-90.6A19.09,19.09,0,0,0,122.5,90.6Z"/><path id="_Path_8" data-name="&lt;Path&gt;" class="cls-5" d="M.9,198.4,0,200H35.9l.9-1.6Z"/><path id="_Path_9" data-name="&lt;Path&gt;" class="cls-1" d="M122.5,90.6,70.1,0H0L57.8,100,0,200H70.1l52.4-90.6A19.09,19.09,0,0,0,122.5,90.6Z"/><path id="_Path_10" data-name="&lt;Path&gt;" class="cls-6" d="M0,200H.9l57.4-99.2-.5-.8Z"/><path id="_Path_11" data-name="&lt;Path&gt;" class="cls-1" d="M122.5,90.6,70.1,0H0L57.8,100,0,200H70.1l52.4-90.6A19.09,19.09,0,0,0,122.5,90.6Z"/><path id="_Path_12" data-name="&lt;Path&gt;" class="cls-7" d="M92.9,160.6,75.8,131.1l-4.2,7.2Z"/><path id="_Path_13" data-name="&lt;Path&gt;" class="cls-1" d="M122.5,90.6,70.1,0H0L57.8,100,0,200H70.1l52.4-90.6A19.09,19.09,0,0,0,122.5,90.6Z"/><path id="_Path_14" data-name="&lt;Path&gt;" class="cls-8" d="M71.6,138.3l4.2-7.2L57.8,100l-8.5,14.8Z"/><path id="_Path_15" data-name="&lt;Path&gt;" class="cls-1" d="M122.5,90.6,70.1,0H0L57.8,100,0,200H70.1l52.4-90.6A19.09,19.09,0,0,0,122.5,90.6Z"/><g id="_Group_4" data-name="&lt;Group&gt;"><g id="_Group_5" data-name="&lt;Group&gt;"><path id="_Path_16" data-name="&lt;Path&gt;" class="cls-9" d="M35.9,0H0L92.9,160.6l17.9-31.1Z"/></g></g><path id="_Path_17" data-name="&lt;Path&gt;" class="cls-1" d="M122.5,90.6,70.1,0H0L57.8,100,0,200H70.1l52.4-90.6A19.09,19.09,0,0,0,122.5,90.6Z"/><path id="_Path_18" data-name="&lt;Path&gt;" class="cls-10" d="M122.5,109.4a18.6,18.6,0,0,0,0-18.8L70.1,0H35.9l74.9,129.5Z"/><path id="_Path_19" data-name="&lt;Path&gt;" class="cls-1" d="M122.5,90.6,70.1,0H0L57.8,100,0,200H70.1l52.4-90.6A19.09,19.09,0,0,0,122.5,90.6Z"/><path id="_Path_20" data-name="&lt;Path&gt;" class="cls-11" d="M110.8,129.5l-.4-.8L92.9,159,.9,0H0L92.9,160.6Z"/><path id="_Path_21" data-name="&lt;Path&gt;" class="cls-1" d="M122.5,90.6,70.1,0H0L57.8,100,0,200H70.1l52.4-90.6A19.09,19.09,0,0,0,122.5,90.6Z"/><path id="_Path_22" data-name="&lt;Path&gt;" class="cls-6" d="M70.1,1.6l52.4,90.6a20.32,20.32,0,0,1,2.5,8.6,19.54,19.54,0,0,0-2.5-10.2L70.1,0H0L.9,1.6Z"/><path id="_Path_23" data-name="&lt;Path&gt;" class="cls-1" d="M122.5,90.6,70.1,0H0L57.8,100,0,200H70.1l52.4-90.6A19.09,19.09,0,0,0,122.5,90.6Z"/><path id="_Path_24" data-name="&lt;Path&gt;" class="cls-12" d="M110.8,129.5l11.6-20.1a19.31,19.31,0,0,0,2.5-10.2,17.83,17.83,0,0,1-2.5,8.6l-12.1,20.9Z"/><path id="_Path_25" data-name="&lt;Path&gt;" class="cls-1" d="M122.5,90.6,70.1,0H0L57.8,100,0,200H70.1l52.4-90.6A19.09,19.09,0,0,0,122.5,90.6Z"/><path id="_Path_26" data-name="&lt;Path&gt;" class="cls-13" d="M122.5,90.6,70.1,0H0L57.8,100,0,200H70.1l52.4-90.6A19.09,19.09,0,0,0,122.5,90.6Z"/></g></g></g><g id="_Group_6" data-name="&lt;Group&gt;"><path id="_Path_27" data-name="&lt;Path&gt;" class="cls-14" d="M359.9,104.4q0,33-19.6,52.7-22.2,23.4-57.9,23.4c-22.8,0-42.1-7.9-58.1-23.7s-23.9-35.4-23.9-58.7,8-42.9,23.9-58.7,35.3-23.7,58.1-23.7a81.63,81.63,0,0,1,32.4,6.6c10.3,4.4,18.5,10.3,24.7,17.6L325.6,53.8C315.1,41.2,300.7,35,282.3,35a59.9,59.9,0,0,0-43.1,17.5C227.1,64.2,221,79.3,221,98s6.1,33.8,18.2,45.5A59.9,59.9,0,0,0,282.3,161q26.4,0,44.1-17.6c7.6-7.6,12-18.3,13.2-31.9H282.3v-19h76.4a62.37,62.37,0,0,1,1.2,11.9Z"/><path id="_Compound_Path_" data-name="&lt;Compound Path&gt;" class="cls-14" d="M380.3,176.9V19.1h48.2q36.3,0,58.2,21.9,21.75,21.9,21.8,57c0,23.4-7.3,42.3-21.8,57s-33.9,21.9-58.2,21.9Zm20.3-19.4h28c18.2,0,32.6-5.2,43.3-15.6s16-25,16-43.8-5.3-33.2-16-43.7-25.1-15.8-43.3-15.8h-28Z"/><path id="_Path_28" data-name="&lt;Path&gt;" class="cls-14" d="M681,104.4q0,33-19.6,52.7-22.2,23.4-57.9,23.4c-22.8,0-42.1-7.9-58.1-23.7s-23.9-35.4-23.9-58.7,8-42.9,23.9-58.7,35.3-23.7,58.1-23.7a81.63,81.63,0,0,1,32.4,6.6c10.3,4.4,18.5,10.3,24.7,17.6L646.7,53.8C636.2,41.2,621.8,35,603.4,35a59.9,59.9,0,0,0-43.1,17.5C548.2,64.2,542.1,79.3,542.1,98s6.1,33.8,18.2,45.5A59.9,59.9,0,0,0,603.4,161q26.4,0,44.1-17.6c7.6-7.6,12-18.3,13.2-31.9H603.4v-19h76.4a62.37,62.37,0,0,1,1.2,11.9Z"/><path class="cls-14" d="M751.1,19.08h20.57v142H839.9v17.3H751.1V19.08Z"/><path class="cls-14" d="M925.1,178.39,923.47,164h-.66c-6.52,9.15-18.6,17-34.93,17C864.71,181,853,164.68,853,148c0-27.75,24.49-42.77,68.88-42.44V103.3c0-9.46-2.61-26.44-26.11-26.44-10.77,0-21.87,3.27-29.71,8.49l-4.57-13.71c9.47-6.2,23.18-10.12,37.54-10.12,34.93,0,43.42,23.83,43.42,46.68V151c0,9.79.33,19.58,2,27.42ZM922.16,120c-22.85-.32-48.31,3.59-48.31,25.79,0,13.39,9.14,19.92,19.58,19.92,15,0,24.49-9.47,27.75-19.26a25.44,25.44,0,0,0,1.31-6.53V120Z"/><path class="cls-14" d="M1026.63,21a241.43,241.43,0,0,1,39.5-2.94c20.24,0,35.25,4.57,44.72,13.06,8.82,7.51,14,19.26,14,33.3,0,14.36-4.25,25.79-12.41,34-10.77,11.42-28.72,17.63-48.64,17.63a86.12,86.12,0,0,1-16.65-1.31v63.66h-20.56V21Zm20.56,76.71c4.57,1.31,10.12,1.64,17,1.64,24.81,0,39.83-12.08,39.83-33.95,0-20.9-15-31.34-37.55-31.34-9.14,0-15.67.65-19.26,1.63v62Z"/><path class="cls-14" d="M1208.79,178.39,1207.15,164h-.65c-6.53,9.15-18.61,17-34.93,17-23.18,0-34.93-16.32-34.93-33,0-27.75,24.48-42.77,68.88-42.44V103.3c0-9.46-2.61-26.44-26.11-26.44-10.78,0-21.88,3.27-29.71,8.49l-4.57-13.71c9.47-6.2,23.18-10.12,37.54-10.12,34.93,0,43.42,23.83,43.42,46.68V151c0,9.79.33,19.58,2,27.42ZM1205.85,120c-22.85-.32-48.32,3.59-48.32,25.79,0,13.39,9.14,19.92,19.59,19.92,15,0,24.49-9.47,27.75-19.26a25.87,25.87,0,0,0,1.31-6.53V120Z"/><path class="cls-14" d="M1246.33,166.31l51.91-67.25c4.89-6.2,9.79-11.43,15-17.63v-.32h-62V64.46h87.16l-.33,13.05-50.92,66.27a196.37,196.37,0,0,1-14.69,18v.33h66.92v16.64h-93Z"/></g></svg>